<svg xmlns="http://www.w3.org/2000/svg" viewBox="0 0 1060 700" width="1060" height="700" font-family="Segoe UI, Selawik, Inter, sans-serif">
  <rect width="1060" height="700" fill="#000000"/>
  <text x="20" y="42" fill="#FFFFFF" font-size="32" font-weight="300">Windows Phone 8 — accent colors</text>
  <text x="20" y="66" fill="#99FFFFFF" font-size="14">L = relative luminance (WCAG). Правило Metro-Compose: L &#8805; 0.5 &#8594; чёрный текст. Срабатывает только на yellow.</text>

  <!-- row 0 -->
  <g><rect x="20" y="90" width="250" height="110" fill="#A4C400"/><text x="34" y="122" fill="#FFFFFF" font-size="20" font-weight="600">lime</text><text x="34" y="146" fill="#FFFFFF" font-size="15" opacity="0.85">#A4C400</text><text x="34" y="168" fill="#FFFFFF" font-size="13" opacity="0.7">L 0.474 · white · 2.03:1</text><text x="34" y="190" fill="#FFFFFF" font-size="13" opacity="0.55">AA FAIL</text></g>
  <g><rect x="275" y="90" width="250" height="110" fill="#60A917"/><text x="289" y="122" fill="#FFFFFF" font-size="20" font-weight="600">green</text><text x="289" y="146" fill="#FFFFFF" font-size="15" opacity="0.85">#60A917</text><text x="289" y="168" fill="#FFFFFF" font-size="13" opacity="0.7">L 0.309 · white · 2.93:1</text><text x="289" y="190" fill="#FFFFFF" font-size="13" opacity="0.55">AA FAIL</text></g>
  <g><rect x="530" y="90" width="250" height="110" fill="#008A00"/><text x="544" y="122" fill="#FFFFFF" font-size="20" font-weight="600">emerald</text><text x="544" y="146" fill="#FFFFFF" font-size="15" opacity="0.85">#008A00</text><text x="544" y="168" fill="#FFFFFF" font-size="13" opacity="0.7">L 0.182 · white · 4.52:1</text><text x="544" y="190" fill="#FFFFFF" font-size="13" opacity="0.55">AA pass</text></g>
  <g><rect x="785" y="90" width="250" height="110" fill="#00ABA9"/><text x="799" y="122" fill="#FFFFFF" font-size="20" font-weight="600">teal</text><text x="799" y="146" fill="#FFFFFF" font-size="15" opacity="0.85">#00ABA9</text><text x="799" y="168" fill="#FFFFFF" font-size="13" opacity="0.7">L 0.320 · white · 2.84:1</text><text x="799" y="190" fill="#FFFFFF" font-size="13" opacity="0.55">AA FAIL</text></g>

  <!-- row 1 -->
  <g><rect x="20" y="210" width="250" height="110" fill="#1BA1E2"/><text x="34" y="242" fill="#FFFFFF" font-size="20" font-weight="600">cyan (default)</text><text x="34" y="266" fill="#FFFFFF" font-size="15" opacity="0.85">#1BA1E2</text><text x="34" y="288" fill="#FFFFFF" font-size="13" opacity="0.7">L 0.312 · white · 2.90:1</text><text x="34" y="310" fill="#FFFFFF" font-size="13" opacity="0.55">подтверждён MSDN</text></g>
  <g><rect x="275" y="210" width="250" height="110" fill="#0050EF"/><text x="289" y="242" fill="#FFFFFF" font-size="20" font-weight="600">cobalt</text><text x="289" y="266" fill="#FFFFFF" font-size="15" opacity="0.85">#0050EF</text><text x="289" y="288" fill="#FFFFFF" font-size="13" opacity="0.7">L 0.120 · white · 5.98:1</text><text x="289" y="310" fill="#FFFFFF" font-size="13" opacity="0.55">AA pass</text></g>
  <g><rect x="530" y="210" width="250" height="110" fill="#6A00FF"/><text x="544" y="242" fill="#FFFFFF" font-size="20" font-weight="600">indigo</text><text x="544" y="266" fill="#FFFFFF" font-size="15" opacity="0.85">#6A00FF</text><text x="544" y="288" fill="#FFFFFF" font-size="13" opacity="0.7">L 0.103 · white · 6.86:1</text><text x="544" y="310" fill="#FFFFFF" font-size="13" opacity="0.55">AA pass</text></g>
  <g><rect x="785" y="210" width="250" height="110" fill="#AA00FF"/><text x="799" y="242" fill="#FFFFFF" font-size="20" font-weight="600">violet</text><text x="799" y="266" fill="#FFFFFF" font-size="15" opacity="0.85">#AA00FF</text><text x="799" y="288" fill="#FFFFFF" font-size="13" opacity="0.7">L 0.158 · white · 5.05:1</text><text x="799" y="310" fill="#FFFFFF" font-size="13" opacity="0.55">AA pass</text></g>

  <!-- row 2 -->
  <g><rect x="20" y="330" width="250" height="110" fill="#F472D0"/><text x="34" y="362" fill="#FFFFFF" font-size="20" font-weight="600">pink</text><text x="34" y="386" fill="#FFFFFF" font-size="15" opacity="0.85">#F472D0</text><text x="34" y="408" fill="#FFFFFF" font-size="13" opacity="0.7">L 0.358 · white · 2.57:1</text><text x="34" y="430" fill="#FFFFFF" font-size="13" opacity="0.55">AA FAIL</text></g>
  <g><rect x="275" y="330" width="250" height="110" fill="#D80073"/><text x="289" y="362" fill="#FFFFFF" font-size="20" font-weight="600">magenta</text><text x="289" y="386" fill="#FFFFFF" font-size="15" opacity="0.85">#D80073</text><text x="289" y="408" fill="#FFFFFF" font-size="13" opacity="0.7">L 0.158 · white · 5.04:1</text><text x="289" y="430" fill="#FFFFFF" font-size="13" opacity="0.55">AA pass</text></g>
  <g><rect x="530" y="330" width="250" height="110" fill="#A20025"/><text x="544" y="362" fill="#FFFFFF" font-size="20" font-weight="600">crimson</text><text x="544" y="386" fill="#FFFFFF" font-size="15" opacity="0.85">#A20025</text><text x="544" y="408" fill="#FFFFFF" font-size="13" opacity="0.7">L 0.078 · white · 8.20:1</text><text x="544" y="430" fill="#FFFFFF" font-size="13" opacity="0.55">AA pass</text></g>
  <g><rect x="785" y="330" width="250" height="110" fill="#E51400"/><text x="799" y="362" fill="#FFFFFF" font-size="20" font-weight="600">red</text><text x="799" y="386" fill="#FFFFFF" font-size="15" opacity="0.85">#E51400</text><text x="799" y="408" fill="#FFFFFF" font-size="13" opacity="0.7">L 0.172 · white · 4.73:1</text><text x="799" y="430" fill="#FFFFFF" font-size="13" opacity="0.55">подтверждён MSDN</text></g>

  <!-- row 3 -->
  <g><rect x="20" y="450" width="250" height="110" fill="#FA6800"/><text x="34" y="482" fill="#FFFFFF" font-size="20" font-weight="600">orange</text><text x="34" y="506" fill="#FFFFFF" font-size="15" opacity="0.85">#FA6800</text><text x="34" y="528" fill="#FFFFFF" font-size="13" opacity="0.7">L 0.302 · white · 2.98:1</text><text x="34" y="550" fill="#FFFFFF" font-size="13" opacity="0.55">AA FAIL</text></g>
  <g><rect x="275" y="450" width="250" height="110" fill="#F0A30A"/><text x="289" y="482" fill="#FFFFFF" font-size="20" font-weight="600">amber</text><text x="289" y="506" fill="#FFFFFF" font-size="15" opacity="0.85">#F0A30A</text><text x="289" y="528" fill="#FFFFFF" font-size="13" opacity="0.7">L 0.447 · white · 2.11:1</text><text x="289" y="550" fill="#FFFFFF" font-size="13" opacity="0.55">AA FAIL — худший случай</text></g>
  <g><rect x="530" y="450" width="250" height="110" fill="#E3C800"/><text x="544" y="482" fill="#000000" font-size="20" font-weight="600">yellow</text><text x="544" y="506" fill="#000000" font-size="15" opacity="0.85">#E3C800</text><text x="544" y="528" fill="#000000" font-size="13" opacity="0.7">L 0.577 · BLACK · 12.5:1</text><text x="544" y="550" fill="#000000" font-size="13" opacity="0.55">единственный с чёрным текстом</text></g>
  <g><rect x="785" y="450" width="250" height="110" fill="#825A2C"/><text x="799" y="482" fill="#FFFFFF" font-size="20" font-weight="600">brown</text><text x="799" y="506" fill="#FFFFFF" font-size="15" opacity="0.85">#825A2C</text><text x="799" y="528" fill="#FFFFFF" font-size="13" opacity="0.7">L 0.122 · white · 5.91:1</text><text x="799" y="550" fill="#FFFFFF" font-size="13" opacity="0.55">AA pass</text></g>

  <!-- row 4 -->
  <g><rect x="20" y="570" width="250" height="110" fill="#6D8764"/><text x="34" y="602" fill="#FFFFFF" font-size="20" font-weight="600">olive</text><text x="34" y="626" fill="#FFFFFF" font-size="15" opacity="0.85">#6D8764</text><text x="34" y="648" fill="#FFFFFF" font-size="13" opacity="0.7">L 0.215 · white · 3.98:1</text><text x="34" y="670" fill="#FFFFFF" font-size="13" opacity="0.55">AA FAIL (близко)</text></g>
  <g><rect x="275" y="570" width="250" height="110" fill="#647687"/><text x="289" y="602" fill="#FFFFFF" font-size="20" font-weight="600">steel</text><text x="289" y="626" fill="#FFFFFF" font-size="15" opacity="0.85">#647687</text><text x="289" y="648" fill="#FFFFFF" font-size="13" opacity="0.7">L 0.174 · white · 4.68:1</text><text x="289" y="670" fill="#FFFFFF" font-size="13" opacity="0.55">AA pass</text></g>
  <g><rect x="530" y="570" width="250" height="110" fill="#76608A"/><text x="544" y="602" fill="#FFFFFF" font-size="20" font-weight="600">mauve</text><text x="544" y="626" fill="#FFFFFF" font-size="15" opacity="0.85">#76608A</text><text x="544" y="648" fill="#FFFFFF" font-size="13" opacity="0.7">L 0.141 · white · 5.42:1</text><text x="544" y="670" fill="#FFFFFF" font-size="13" opacity="0.55">AA pass</text></g>
  <g><rect x="785" y="570" width="250" height="110" fill="#87794E"/><text x="799" y="602" fill="#FFFFFF" font-size="20" font-weight="600">taupe</text><text x="799" y="626" fill="#FFFFFF" font-size="15" opacity="0.85">#87794E</text><text x="799" y="648" fill="#FFFFFF" font-size="13" opacity="0.7">L 0.194 · white · 4.31:1</text><text x="799" y="670" fill="#FFFFFF" font-size="13" opacity="0.55">AA FAIL (близко)</text></g>
</svg>
