<svg xmlns="http://www.w3.org/2000/svg" viewBox="0 0 26 26"><path d="M 6 11.4 C 6.88368 11.4 7.6 12.11632 7.6 13 C 7.6 13.88368 6.88368 14.6 6 14.6 C 5.11632 14.6 4.4 13.88368 4.4 13 C 4.4 12.11632 5.11632 11.4 6 11.4 Z"/><path d="M 13 11.4 C 13.88368 11.4 14.6 12.11632 14.6 13 C 14.6 13.88368 13.88368 14.6 13 14.6 C 12.11632 14.6 11.4 13.88368 11.4 13 C 11.4 12.11632 12.11632 11.4 13 11.4 Z"/><path d="M 20 11.4 C 20.88368 11.4 21.6 12.11632 21.6 13 C 21.6 13.88368 20.88368 14.6 20 14.6 C 19.11632 14.6 18.4 13.88368 18.4 13 C 18.4 12.11632 19.11632 11.4 20 11.4 Z"/></svg>
